<?xml version="1.0" standalone="no"?>
<!DOCTYPE svg PUBLIC "-//W3C//DTD SVG 20010904//EN"
 "http://www.w3.org/TR/2001/REC-SVG-20010904/DTD/svg10.dtd">
<svg version="1.0" xmlns="http://www.w3.org/2000/svg"
 width="1196.000000pt" height="1196.000000pt" viewBox="0 0 1196.000000 1196.000000"
 preserveAspectRatio="xMidYMid meet">
<metadata>
Created by potrace 1.11, written by Peter Selinger 2001-2013
</metadata>
<g transform="translate(0.000000,1196.000000) scale(0.100000,-0.100000)"
fill="#000000" stroke="none">
<path d="M6490 9460 c-780 -53 -1513 -432 -1934 -1000 -43 -58 -79 -106 -80
-107 -1 -1 -42 5 -91 13 -129 21 -542 30 -690 15 -1005 -102 -1838 -694 -2150
-1526 -42 -112 -89 -291 -100 -376 l-7 -56 -76 -33 c-652 -281 -1106 -873
-1218 -1585 -23 -149 -23 -440 0 -590 35 -222 91 -404 186 -600 198 -410 535
-747 945 -945 191 -93 367 -148 595 -187 99 -17 309 -18 3995 -21 2716 -2
3934 0 4035 8 270 20 500 81 738 195 716 345 1162 1055 1162 1847 0 466 -163
924 -457 1288 -143 177 -374 373 -572 485 l-99 56 -22 61 c-37 102 -144 307
-219 419 -265 397 -681 723 -1161 910 l-95 37 -42 118 c-299 835 -1097 1432
-2083 1558 -147 19 -412 26 -560 16z m425 -400 c545 -53 1024 -263 1386 -607
263 -251 439 -559 513 -897 l21 -100 77 -22 c548 -157 1010 -505 1261 -950 62
-109 126 -263 153 -365 l17 -66 95 -43 c481 -221 819 -644 933 -1167 33 -152
38 -439 11 -598 -64 -372 -219 -665 -490 -927 -266 -256 -594 -409 -969 -448
-67 -7 -1361 -10 -4028 -8 l-3930 3 -108 23 c-578 123 -1026 502 -1232 1042
-18 47 -35 97 -39 113 l-6 27 1078 0 1079 0 34 23 c80 54 78 158 -4 207 -31
19 -59 20 -1133 20 l-1101 0 -7 46 c-3 26 -6 92 -6 148 2 709 462 1343 1136
1561 60 19 120 39 133 43 22 7 24 12 28 92 13 317 105 591 288 865 485 724
1506 1081 2443 855 68 -17 125 -30 127 -30 2 0 27 44 55 98 285 543 908 949
1605 1046 61 9 130 17 155 19 101 8 331 6 425 -3z"/>
<path d="M4770 5305 l0 -1445 170 0 170 0 0 595 0 595 479 0 478 0 34 -170 33
-170 598 0 598 0 0 850 0 850 -475 0 -475 0 -9 23 c-4 12 -20 88 -36 170 l-28
147 -769 0 -768 0 0 -1445z"/>
</g>
</svg>
